Coordinates
version=1
nRows=29
nColumns=24
inDegrees=yes

Units are S.I. units (second, meters, Newtons, ...)
Angles are in degrees.

endheader
time	pelvis_tilt	pelvis_list	pelvis_rotation	pelvis_tx	pelvis_ty	pelvis_tz	hip_flexion_r	hip_adduction_r	hip_rotation_r	knee_angle_r	ankle_angle_r	subtalar_angle_r	mtp_angle_r	hip_flexion_l	hip_adduction_l	hip_rotation_l	knee_angle_l	ankle_angle_l	subtalar_angle_l	mtp_angle_l	lumbar_extension	lumbar_bending	lumbar_rotation
      0.63000000	      0.69077972	      2.01455995	      5.50783336	     -0.77150482	      0.96906995	      0.30266523	     26.98704127	     -1.13670719	     -3.96167527	     -3.94492835	      7.25882757	    -12.06952213	     -0.11042788	    -20.98811276	      4.45409446	      6.35563507	     -5.26171188	     11.77655146	     -4.44529822	      0.69275318	     -1.12111606	      0.93126736	     -4.77641316
      0.63416667	      0.58836604	      1.91640869	      5.60400514	     -0.76549892	      0.96823043	      0.30287524	     27.13988972	     -1.02966077	     -3.81235044	     -4.36357225	      7.14416460	    -12.56826375	     -0.20477799	    -21.05483429	      4.26852370	      6.15242571	     -5.60478353	     11.83299978	     -4.00412475	      0.94621694	     -0.94897495	      1.04249773	     -4.70919477
      0.63833333	      0.56456867	      1.79433420	      5.70771685	     -0.75943950	      0.96753568	      0.30307802	     27.18939279	     -0.89378544	     -3.68599903	     -4.78213952	      6.94523715	    -13.07771811	     -0.32117155	    -21.20021674	      4.04779781	      5.96189434	     -5.95167004	     11.79106358	     -3.63935666	      1.29210566	     -0.87441516	      1.19484814	     -4.83950751
      0.64250000	      0.49023316	      1.66817478	      5.81915855	     -0.75331237	      0.96680985	      0.30324417	     27.32573171	     -0.77164590	     -3.66620954	     -5.30865900	      6.77733581	    -13.37190773	     -0.36826996	    -21.32337931	      3.83226928	      5.91825853	     -6.23618660	     11.62902789	     -3.48124535	      1.43943466	     -0.73535782	      1.34261063	     -4.84058963
      0.64666667	      0.42145571	      1.54197901	      5.87500668	     -0.74716640	      0.96607566	      0.30352090	     27.44208741	     -0.60685472	     -3.45080095	     -5.82367528	      6.48334591	    -13.99931206	     -0.45879263	    -21.40726300	      3.62820478	      5.67468318	     -6.61537992	     11.63128773	     -3.08567155	      1.79654883	     -0.58042980	      1.49912062	     -4.91469552
      0.65083333	      0.40412741	      1.40763028	      5.93578487	     -0.74094680	      0.96544409	      0.30374707	     27.54938737	     -0.45180674	     -3.45995610	     -6.46394974	      6.25242760	    -14.17319614	     -0.47379456	    -21.60143643	      3.41975918	      5.61914765	     -6.88348158	     11.42246812	     -3.05183623	      1.83951837	     -0.50543779	      1.66226413	     -4.92263602
      0.65500000	      0.29518402	      1.24016151	      6.00029885	     -0.73471935	      0.96473328	      0.30407162	     27.68139775	     -0.23420861	     -3.17524353	     -6.97324757	      5.84346723	    -15.04625806	     -0.54975509	    -21.58574238	      3.16946255	      5.32781560	     -7.36484597	     11.36366683	     -2.59806332	      2.26132661	     -0.30759313	      1.85612751	     -4.95672602
      0.65916667	      0.21054317	      1.06503764	      6.03763295	     -0.72837864	      0.96408352	      0.30437714	     27.81814542	     -0.00977841	     -3.02211416	     -7.56314419	      5.39326076	    -15.58088994	     -0.61131728	    -21.67361216	      2.92679545	      5.18577475	     -7.68757122	     11.18036240	     -2.37494512	      2.65020555	     -0.10832390	      2.07611013	     -4.94619547
      0.66333333	      0.19708925	      0.90559403	      6.06191476	     -0.72204348	      0.96353256	      0.30466799	     27.93872958	      0.19343157	     -3.02868665	     -8.29794028	      5.10943586	    -15.76803566	     -0.62388846	    -21.83706917	      2.70642612	      5.07767483	     -8.02028413	     10.90386682	     -2.36777676	      2.70327733	     -0.03142269	      2.26918051	     -4.95698996
      0.66750000	      0.09255267	      0.68307787	      6.07980368	     -0.71564766	      0.96292715	      0.30509400	     28.05328153	      0.50724009	     -2.67429605	     -8.82824178	      4.58900769	    -16.83062448	     -0.69304568	    -21.82304251	      2.40850848	      4.74761123	     -8.49238912	     10.72850470	     -1.89109364	      3.39208241	      0.18555275	      2.53254855	     -4.94108224
      0.67166667	     -0.00108883	      0.47379876	      6.07153115	     -0.70921733	      0.96235273	      0.30551610	     28.20554828	      0.80421702	     -2.45146070	     -9.46737219	      4.08617314	    -17.53718215	     -0.78121270	    -21.85110352	      2.14280238	      4.51143363	     -8.90675516	     10.45030095	     -1.67450580	      4.48004861	      0.38559851	      2.77734227	     -4.90228361
      0.67583333	     -0.02541592	      0.29570339	      6.05835236	     -0.70277496	      0.96188940	      0.30586706	     28.34319345	      1.04559107	     -2.46101435	    -10.23909663	      3.66841961	    -17.63361408	     -0.79195337	    -21.96848938	      1.91918289	      4.37443461	     -9.29489259	     10.10470321	     -1.71875406	      4.53351117	      0.49201283	      3.00019543	     -4.90694421
      0.68000000	     -0.15509147	      0.05699708	      6.04343083	     -0.69628780	      0.96135970	      0.30635475	     28.51117298	      1.38855037	     -2.17628152	    -10.84701040	      3.08722420	    -18.49217757	     -0.83079061	    -21.88485701	      1.61856421	      4.04281199	     -9.83950900	      9.79872658	     -1.33322227	      5.25510139	      0.74485146	      3.27545188	     -4.82893884
      0.68416667	     -0.22995067	     -0.17055508	      5.99811860	     -0.68975130	      0.96092921	      0.30681823	     28.65962098	      1.71578421	     -2.03192556	    -11.54015809	      2.53985999	    -18.87449870	     -1.01201854	    -21.91431271	      1.34850928	      3.82055683	    -10.26826950	      9.31089306	     -1.33716293	     10.09877656	      0.93278422	      3.55985513	     -4.81147632
      0.68833333	     -0.32697783	     -0.37946451	      5.93511974	     -0.68322457	      0.96050282	      0.30733020	     28.85061420	      2.03168415	     -1.88448497	    -12.28009774	      2.01809454	    -19.24696703	     -1.02088886	    -21.88297402	      1.10246478	      3.56907249	    -10.77423262	      8.89136379	     -1.18102731	     10.15737127	      1.13566106	      3.79680550	     -4.73053700
      0.69250000	     -0.39649039	     -0.61486571	      5.86381531	     -0.67666085	      0.96016148	      0.30787538	     28.99339866	      2.38961484	     -1.69902308	    -12.99187367	      1.51646309	    -19.72115920	     -1.02984889	    -21.85617614	      0.82387322	      3.27154966	    -11.32239536	      8.43443817	     -0.99768865	     10.29246700	      1.32099598	      4.08199240	     -4.66406415
      0.69666667	     -0.45028424	     -0.86111734	      5.78380071	     -0.67005953	      0.95989152	      0.30844981	     29.12210981	      2.76524451	     -1.53464528	    -13.72314338	      1.07467687	    -20.21425232	     -1.04128805	    -21.84812002	      0.53328474	      2.99561600	    -11.85421247	      7.91805043	     -0.81848740	     10.56047929	      1.48330287	      4.37886493	     -4.58722229
      0.70083333	     -0.51991061	     -1.09804000	      5.68686610	     -0.66346201	      0.95964731	      0.30906023	     29.26843774	      3.13802433	     -1.35705936	    -14.45962432	      0.63004192	    -20.62137350	     -1.05457943	    -21.79243720	      0.25802890	      2.70651882	    -12.43923090	      7.36659580	     -0.66666117	     10.95507564	      1.66620867	      4.66294681	     -4.50865564
      0.70500000	     -0.53987037	     -1.35494413	      5.60166245	     -0.65684818	      0.95953637	      0.30970204	     29.33747359	      3.53886338	     -1.17653329	    -15.15868121	      0.26891122	    -21.08761434	     -1.08243347	    -21.75420613	     -0.05789975	      2.37771370	    -13.07274391	      6.71849448	     -0.47569041	     11.86539355	      1.77883850	      4.96235474	     -4.42334103
      0.70916667	     -0.54818302	     -1.60764598	      5.47641511	     -0.65021493	      0.95946547	      0.31037285	     29.40369658	      3.94444349	     -1.02021839	    -15.87128919	     -0.20748847	    -21.35622407	     -1.19858692	    -21.73867695	     -0.35116021	      2.06772840	    -13.68413337	      6.01165491	     -0.41797045	     15.10118165	      1.88466051	      5.27096680	     -4.39784687
      0.71333333	     -0.58729461	     -1.81374330	      5.35463118	     -0.64359406	      0.95939711	      0.31101649	     29.53397205	      4.28415312	     -0.93315180	    -16.68217114	     -0.39506459	    -21.38278068	     -1.20123069	    -21.67015565	     -0.58588092	      1.85046497	    -14.32850008	      5.24681480	     -0.41765383	     15.13040480	      2.02707798	      5.52372390	     -4.36431834
      0.71750000	     -0.63999302	     -2.03713339	      5.22433386	     -0.63701200	      0.95935399	      0.31175912	     29.65070925	      4.66357873	     -0.76698561	    -17.42873113	     -0.67620741	    -21.67191524	     -1.21732314	    -21.50959490	     -0.85778222	      1.51536601	    -15.11201481	      4.56428615	     -0.21193414	     15.38105139	      2.17632495	      5.77773492	     -4.20989527
      0.72166667	     -0.62257313	     -2.25406389	      5.10745421	     -0.63040184	      0.95947533	      0.31244903	     29.67781893	      5.02257566	     -0.68094186	    -18.16228876	     -0.86774456	    -21.72871644	     -1.22296593	    -21.44220929	     -1.12057270	      1.29923989	    -15.83872733	      3.69588622	     -0.20077978	     15.46184743	      2.24841749	      6.04424770	     -4.20173328
      0.72583333	     -0.53971018	     -2.53076099	      4.96700798	     -0.62380877	      0.95974375	      0.31328982	     29.56505861	      5.49943445	     -0.41775388	    -18.74393975	     -1.18119860	    -22.31475463	     -1.35606373	    -21.38706202	     -1.47198545	      0.91027530	    -16.65632350	      2.84521044	     -0.03164651	     17.63741917	      2.22508194	      6.36879687	     -4.16456872
      0.73000000	     -0.56881926	     -2.70786438	      4.85788111	     -0.61726998	      0.95988270	      0.31399837	     29.64225246	      5.80011905	     -0.39222452	    -19.49636209	     -1.27430792	    -22.23887638	     -1.35998955	    -21.18353156	     -1.70119345	      0.73102841	    -17.51932798	      1.92559976	      0.00494370	     17.71786037	      2.34780948	      6.57650851	     -4.10623977
      0.73416667	     -0.51466818	     -2.94683025	      4.72889122	     -0.61075785	      0.96017296	      0.31484085	     29.56563574	      6.20931517	     -0.24958150	    -20.10404884	     -1.44078724	    -22.45072216	     -1.55866130	    -21.00223349	     -2.03053864	      0.35311358	    -18.48961091	      1.03229209	      0.23738848	     20.86445269	      2.34965474	      6.84209110	     -3.95020766
      0.73833333	     -0.49928400	     -3.09873886	      4.63222053	     -0.60430823	      0.96046907	      0.31555318	     29.55666783	      6.48107830	     -0.23607388	    -20.79159047	     -1.48094377	    -22.40671790	     -1.55966830	    -20.77592233	     -2.24314258	      0.23248679	    -19.44223387	      0.03128377	      0.18248047	     20.89442524	      2.41071871	      7.02158606	     -3.96595568
      0.74250000	     -0.46903781	     -3.26579889	      4.53413891	     -0.59789875	      0.96081594	      0.31631470	     29.50018977	      6.77856931	     -0.19639881	    -21.41393391	     -1.51615220	    -22.37211698	     -1.56095698	    -20.51869375	     -2.48420851	      0.07717281	    -20.46822709	     -0.99939527	      0.17779210	     20.94967699	      2.42988745	      7.19415767	     -3.96221456
      0.74666667	     -0.48402112	     -3.42835816	      4.47180278	     -0.59156776	      0.96114470	      0.31708502	     29.46920458	      7.05452908	     -0.17982149	    -21.98846851	     -1.53838614	    -22.44346314	     -1.59954963	    -20.12909740	     -2.75133290	     -0.08680452	    -21.62571415	     -1.94876062	      0.34690846	     21.75816828	      2.51715869	      7.35361686	     -3.92747896
